  0
SECTION
  2
HEADER
  9
$ACADVER
  1
AC1014
  9
$HANDSEED
  5
FFFF
  9
$MEASUREMENT
 70
     1
  0
ENDSEC
  0
SECTION
  2
TABLES
  0
TABLE
  2
VPORT
  5
8
330
0
100
AcDbSymbolTable
 70
     4
  0
VPORT
  5
2E
330
8
100
AcDbSymbolTableRecord
100
AcDbViewportTableRecord
  2
*ACTIVE
 70
     0
 10
0.0
 20
0.0
 11
1.0
 21
1.0
 12
210.0
 22
148.5
 13
0.0
 23
0.0
 14
10.0
 24
10.0
 15
10.0
 25
10.0
 16
0.0
 26
0.0
 36
1.0
 17
0.0
 27
0.0
 37
0.0
 40
341.0
 41
1.24
 42
50.0
 43
0.0
 44
0.0
 50
0.0
 51
0.0
 71
     0
 72
   100
 73
     1
 74
     3
 75
     0
 76
     0
 77
     0
 78
     0
  0
ENDTAB
  0
TABLE
  2
LTYPE
  5
5
330
0
100
AcDbSymbolTable
 70
     1
  0
LTYPE
  5
14
330
5
100
AcDbSymbolTableRecord
100
AcDbLinetypeTableRecord
  2
BYBLOCK
 70
     0
  3

 72
    65
 73
     0
 40
0.0
  0
LTYPE
  5
15
330
5
100
AcDbSymbolTableRecord
100
AcDbLinetypeTableRecord
  2
BYLAYER
 70
     0
  3

 72
    65
 73
     0
 40
0.0
  0
LTYPE
  5
16
330
5
100
AcDbSymbolTableRecord
100
AcDbLinetypeTableRecord
  2
CONTINUOUS
 70
     0
  3
Solid line
 72
    65
 73
     0
 40
0.0
  0
ENDTAB
  0
TABLE
  2
LAYER
  5
2
100
AcDbSymbolTable
 70
2
  0
LAYER
  5
50
100
AcDbSymbolTableRecord
100
AcDbLayerTableRecord
  2
0
 70
0
  6
CONTINUOUS
  0
LAYER
  5
51
100
AcDbSymbolTableRecord
100
AcDbLayerTableRecord
  2
Base
 70
0
  6
CONTINUOUS
  0
ENDTAB
  0
TABLE
  2
STYLE
  5
3
330
0
100
AcDbSymbolTable
 70
     1
  0
STYLE
  5
11
330
3
100
AcDbSymbolTableRecord
100
AcDbTextStyleTableRecord
  2
STANDARD
 70
     0
 40
0.0
 41
1.0
 50
0.0
 71
     0
 42
2.5
  3
txt
  4

  0
ENDTAB
  0
TABLE
  2
VIEW
  5
6
330
0
100
AcDbSymbolTable
 70
     0
  0
ENDTAB
  0
TABLE
  2
UCS
  5
7
330
0
100
AcDbSymbolTable
 70
     0
  0
ENDTAB
  0
TABLE
  2
APPID
  5
9
330
0
100
AcDbSymbolTable
 70
     2
  0
APPID
  5
12
330
9
100
AcDbSymbolTableRecord
100
AcDbRegAppTableRecord
  2
ACAD
 70
     0
  0
ENDTAB
  0
TABLE
  2
DIMSTYLE
  5
A
330
0
100
AcDbSymbolTable
 70
     1
  0
DIMSTYLE
105
27
330
A
100
AcDbSymbolTableRecord
100
AcDbDimStyleTableRecord
  2
ISO-25
 70
     0
  3

  4

  5

  6

  7

 40
1.0
 41
2.5
 42
0.625
 43
3.75
 44
1.25
 45
0.0
 46
0.0
 47
0.0
 48
0.0
140
2.5
141
2.5
142
0.0
143
0.03937007874016
144
1.0
145
0.0
146
1.0
147
0.625
 71
     0
 72
     0
 73
     0
 74
     0
 75
     0
 76
     0
 77
     1
 78
     8
170
     0
171
     3
172
     1
173
     0
174
     0
175
     0
176
     0
177
     0
178
     0
270
     2
271
     2
272
     2
273
     2
274
     3
340
11
275
     0
280
     0
281
     0
282
     0
283
     0
284
     8
285
     0
286
     0
287
     3
288
     0
  0
ENDTAB
  0
TABLE
  2
BLOCK_RECORD
  5
1
330
0
100
AcDbSymbolTable
 70
     1
  0
BLOCK_RECORD
  5
1F
330
1
100
AcDbSymbolTableRecord
100
AcDbBlockTableRecord
  2
*MODEL_SPACE
  0
BLOCK_RECORD
  5
1B
330
1
100
AcDbSymbolTableRecord
100
AcDbBlockTableRecord
  2
*PAPER_SPACE
  0
ENDTAB
  0
ENDSEC
  0
SECTION
  2
BLOCKS
  0
BLOCK
  5
20
330
1F
100
AcDbEntity
  8
0
100
AcDbBlockBegin
  2
*MODEL_SPACE
 70
     0
 10
0.0
 20
0.0
 30
0.0
  3
*MODEL_SPACE
  1

  0
ENDBLK
  5
21
330
1F
100
AcDbEntity
  8
0
100
AcDbBlockEnd
  0
BLOCK
  5
1C
330
1B
100
AcDbEntity
 67
     1
  8
0
100
AcDbBlockBegin
  2
*PAPER_SPACE
  1

  0
ENDBLK
  5
1D
330
1B
100
AcDbEntity
 67
     1
  8
0
100
AcDbBlockEnd
  0
ENDSEC
  0
SECTION
  2
ENTITIES
  0
LINE
  5
100
100
AcDbEntity
  8
Base
 62
7
100
AcDbLine
 10
0.050161
 20
89.949761
 30
0.0
 11
0.050161
 21
0.049870
 31
0.0
  0
LINE
  5
101
100
AcDbEntity
  8
Base
 62
7
100
AcDbLine
 10
0.050161
 20
0.049870
 30
0.0
 11
114.949882
 21
0.049870
 31
0.0
  0
LINE
  5
102
100
AcDbEntity
  8
Base
 62
7
100
AcDbLine
 10
114.949882
 20
0.049870
 30
0.0
 11
114.949882
 21
89.949761
 31
0.0
  0
LINE
  5
103
100
AcDbEntity
  8
Base
 62
7
100
AcDbLine
 10
114.949882
 20
89.949761
 30
0.0
 11
0.050161
 21
89.949761
 31
0.0
  0
LINE
  5
104
100
AcDbEntity
  8
Base
 62
7
100
AcDbLine
 10
0.050161
 20
89.949761
 30
0.0
 11
0.050161
 21
89.949761
 31
0.0
  0
SPLINE
  5
105
100
AcDbEntity
  8
Base
 62
7
100
AcDbSpline
 70
8
 71
3
 72
8
 73
4
 74
0
 40
0
 40
0
 40
0
 40
0
 40
1
 40
1
 40
1
 40
1
 10
15.000221
 20
78.950260
 30
0.0
 10
16.077117
 20
78.950066
 30
0.0
 10
16.949979
 20
78.076957
 30
0.0
 10
16.949870
 20
77.000062
 30
0.0
  0
SPLINE
  5
106
100
AcDbEntity
  8
Base
 62
7
100
AcDbSpline
 70
8
 71
3
 72
8
 73
4
 74
0
 40
0
 40
0
 40
0
 40
0
 40
1
 40
1
 40
1
 40
1
 10
16.949870
 20
77.000062
 30
0.0
 10
16.949981
 20
75.923165
 30
0.0
 10
16.077118
 20
75.050055
 30
0.0
 10
15.000221
 20
75.049861
 30
0.0
  0
SPLINE
  5
107
100
AcDbEntity
  8
Base
 62
7
100
AcDbSpline
 70
8
 71
3
 72
8
 73
4
 74
0
 40
0
 40
0
 40
0
 40
0
 40
1
 40
1
 40
1
 40
1
 10
15.000221
 20
75.049861
 30
0.0
 10
14.482980
 20
75.049808
 30
0.0
 10
13.986908
 20
75.255258
 30
0.0
 10
13.621163
 20
75.621003
 30
0.0
  0
SPLINE
  5
108
100
AcDbEntity
  8
Base
 62
7
100
AcDbSpline
 70
8
 71
3
 72
8
 73
4
 74
0
 40
0
 40
0
 40
0
 40
0
 40
1
 40
1
 40
1
 40
1
 10
13.621163
 20
75.621003
 30
0.0
 10
13.255418
 20
75.986748
 30
0.0
 10
13.049968
 20
76.482820
 30
0.0
 10
13.050022
 20
77.000062
 30
0.0
  0
SPLINE
  5
109
100
AcDbEntity
  8
Base
 62
7
100
AcDbSpline
 70
8
 71
3
 72
8
 73
4
 74
0
 40
0
 40
0
 40
0
 40
0
 40
1
 40
1
 40
1
 40
1
 10
13.050022
 20
77.000062
 30
0.0
 10
13.049969
 20
77.517303
 30
0.0
 10
13.255419
 20
78.013374
 30
0.0
 10
13.621164
 20
78.379119
 30
0.0
  0
SPLINE
  5
10a
100
AcDbEntity
  8
Base
 62
7
100
AcDbSpline
 70
8
 71
3
 72
8
 73
4
 74
0
 40
0
 40
0
 40
0
 40
0
 40
1
 40
1
 40
1
 40
1
 10
13.621164
 20
78.379119
 30
0.0
 10
13.986909
 20
78.744863
 30
0.0
 10
14.482980
 20
78.950313
 30
0.0
 10
15.000221
 20
78.950260
 30
0.0
  0
LINE
  5
10b
100
AcDbEntity
  8
Base
 62
7
100
AcDbLine
 10
15.000221
 20
78.950260
 30
0.0
 11
15.000221
 21
78.950260
 31
0.0
  0
SPLINE
  5
10c
100
AcDbEntity
  8
Base
 62
7
100
AcDbSpline
 70
8
 71
3
 72
8
 73
4
 74
0
 40
0
 40
0
 40
0
 40
0
 40
1
 40
1
 40
1
 40
1
 10
94.999748
 20
78.950260
 30
0.0
 10
95.516989
 20
78.950313
 30
0.0
 10
96.013061
 20
78.744863
 30
0.0
 10
96.378806
 20
78.379119
 30
0.0
  0
SPLINE
  5
10d
100
AcDbEntity
  8
Base
 62
7
100
AcDbSpline
 70
8
 71
3
 72
8
 73
4
 74
0
 40
0
 40
0
 40
0
 40
0
 40
1
 40
1
 40
1
 40
1
 10
96.378806
 20
78.379119
 30
0.0
 10
96.744551
 20
78.013374
 30
0.0
 10
96.950001
 20
77.517303
 30
0.0
 10
96.949949
 20
77.000062
 30
0.0
  0
SPLINE
  5
10e
100
AcDbEntity
  8
Base
 62
7
100
AcDbSpline
 70
8
 71
3
 72
8
 73
4
 74
0
 40
0
 40
0
 40
0
 40
0
 40
1
 40
1
 40
1
 40
1
 10
96.949949
 20
77.000062
 30
0.0
 10
96.950002
 20
76.482820
 30
0.0
 10
96.744552
 20
75.986748
 30
0.0
 10
96.378807
 20
75.621003
 30
0.0
  0
SPLINE
  5
10f
100
AcDbEntity
  8
Base
 62
7
100
AcDbSpline
 70
8
 71
3
 72
8
 73
4
 74
0
 40
0
 40
0
 40
0
 40
0
 40
1
 40
1
 40
1
 40
1
 10
96.378807
 20
75.621003
 30
0.0
 10
96.013062
 20
75.255258
 30
0.0
 10
95.516990
 20
75.049808
 30
0.0
 10
94.999748
 20
75.049861
 30
0.0
  0
SPLINE
  5
110
100
AcDbEntity
  8
Base
 62
7
100
AcDbSpline
 70
8
 71
3
 72
8
 73
4
 74
0
 40
0
 40
0
 40
0
 40
0
 40
1
 40
1
 40
1
 40
1
 10
94.999748
 20
75.049861
 30
0.0
 10
93.922852
 20
75.050056
 30
0.0
 10
93.049989
 20
75.923166
 30
0.0
 10
93.050100
 20
77.000062
 30
0.0
  0
SPLINE
  5
111
100
AcDbEntity
  8
Base
 62
7
100
AcDbSpline
 70
8
 71
3
 72
8
 73
4
 74
0
 40
0
 40
0
 40
0
 40
0
 40
1
 40
1
 40
1
 40
1
 10
93.050100
 20
77.000062
 30
0.0
 10
93.049991
 20
78.076957
 30
0.0
 10
93.922853
 20
78.950065
 30
0.0
 10
94.999748
 20
78.950260
 30
0.0
  0
LINE
  5
112
100
AcDbEntity
  8
Base
 62
7
100
AcDbLine
 10
94.999748
 20
78.950260
 30
0.0
 11
94.999748
 21
78.950260
 31
0.0
  0
SPLINE
  5
113
100
AcDbEntity
  8
Base
 62
7
100
AcDbSpline
 70
8
 71
3
 72
8
 73
4
 74
0
 40
0
 40
0
 40
0
 40
0
 40
1
 40
1
 40
1
 40
1
 10
15.000221
 20
14.949758
 30
0.0
 10
16.076900
 20
14.949564
 30
0.0
 10
16.949672
 20
14.076795
 30
0.0
 10
16.949870
 20
13.000116
 30
0.0
  0
SPLINE
  5
114
100
AcDbEntity
  8
Base
 62
7
100
AcDbSpline
 70
8
 71
3
 72
8
 73
4
 74
0
 40
0
 40
0
 40
0
 40
0
 40
1
 40
1
 40
1
 40
1
 10
16.949870
 20
13.000116
 30
0.0
 10
16.949987
 20
11.923216
 30
0.0
 10
16.077122
 20
11.050099
 30
0.0
 10
15.000221
 20
11.049904
 30
0.0
  0
SPLINE
  5
115
100
AcDbEntity
  8
Base
 62
7
100
AcDbSpline
 70
8
 71
3
 72
8
 73
4
 74
0
 40
0
 40
0
 40
0
 40
0
 40
1
 40
1
 40
1
 40
1
 10
15.000221
 20
11.049904
 30
0.0
 10
14.482978
 20
11.049851
 30
0.0
 10
13.986904
 20
11.255303
 30
0.0
 10
13.621159
 20
11.621050
 30
0.0
  0
SPLINE
  5
116
100
AcDbEntity
  8
Base
 62
7
100
AcDbSpline
 70
8
 71
3
 72
8
 73
4
 74
0
 40
0
 40
0
 40
0
 40
0
 40
1
 40
1
 40
1
 40
1
 10
13.621159
 20
11.621050
 30
0.0
 10
13.255414
 20
11.986798
 30
0.0
 10
13.049965
 20
12.482873
 30
0.0
 10
13.050022
 20
13.000116
 30
0.0
  0
SPLINE
  5
117
100
AcDbEntity
  8
Base
 62
7
100
AcDbSpline
 70
8
 71
3
 72
8
 73
4
 74
0
 40
0
 40
0
 40
0
 40
0
 40
1
 40
1
 40
1
 40
1
 10
13.050022
 20
13.000116
 30
0.0
 10
13.050219
 20
14.077010
 30
0.0
 10
13.923328
 20
14.949869
 30
0.0
 10
15.000221
 20
14.949758
 30
0.0
  0
LINE
  5
118
100
AcDbEntity
  8
Base
 62
7
100
AcDbLine
 10
15.000221
 20
14.949758
 30
0.0
 11
15.000221
 21
14.949758
 31
0.0
  0
SPLINE
  5
119
100
AcDbEntity
  8
Base
 62
7
100
AcDbSpline
 70
8
 71
3
 72
8
 73
4
 74
0
 40
0
 40
0
 40
0
 40
0
 40
1
 40
1
 40
1
 40
1
 10
94.999748
 20
14.949758
 30
0.0
 10
96.076642
 20
14.949869
 30
0.0
 10
96.949751
 20
14.077010
 30
0.0
 10
96.949949
 20
13.000116
 30
0.0
  0
SPLINE
  5
11a
100
AcDbEntity
  8
Base
 62
7
100
AcDbSpline
 70
8
 71
3
 72
8
 73
4
 74
0
 40
0
 40
0
 40
0
 40
0
 40
1
 40
1
 40
1
 40
1
 10
96.949949
 20
13.000116
 30
0.0
 10
96.950005
 20
12.482873
 30
0.0
 10
96.744556
 20
11.986798
 30
0.0
 10
96.378811
 20
11.621050
 30
0.0
  0
SPLINE
  5
11b
100
AcDbEntity
  8
Base
 62
7
100
AcDbSpline
 70
8
 71
3
 72
8
 73
4
 74
0
 40
0
 40
0
 40
0
 40
0
 40
1
 40
1
 40
1
 40
1
 10
96.378811
 20
11.621050
 30
0.0
 10
96.013065
 20
11.255303
 30
0.0
 10
95.516992
 20
11.049851
 30
0.0
 10
94.999748
 20
11.049904
 30
0.0
  0
SPLINE
  5
11c
100
AcDbEntity
  8
Base
 62
7
100
AcDbSpline
 70
8
 71
3
 72
8
 73
4
 74
0
 40
0
 40
0
 40
0
 40
0
 40
1
 40
1
 40
1
 40
1
 10
94.999748
 20
11.049904
 30
0.0
 10
93.922848
 20
11.050099
 30
0.0
 10
93.049983
 20
11.923216
 30
0.0
 10
93.050100
 20
13.000116
 30
0.0
  0
SPLINE
  5
11d
100
AcDbEntity
  8
Base
 62
7
100
AcDbSpline
 70
8
 71
3
 72
8
 73
4
 74
0
 40
0
 40
0
 40
0
 40
0
 40
1
 40
1
 40
1
 40
1
 10
93.050100
 20
13.000116
 30
0.0
 10
93.050298
 20
14.076794
 30
0.0
 10
93.923070
 20
14.949564
 30
0.0
 10
94.999748
 20
14.949758
 30
0.0
  0
LINE
  5
11e
100
AcDbEntity
  8
Base
 62
7
100
AcDbLine
 10
94.999748
 20
14.949758
 30
0.0
 11
94.999748
 21
14.949758
 31
0.0
  0
ENDSEC
  0
SECTION
  2
OBJECTS
  0
DICTIONARY
  5
C
330
0
100
AcDbDictionary
  3
ACAD_GROUP
350
D
  3
ACAD_MLINESTYLE
350
17
  0
DICTIONARY
  5
D
330
C
100
AcDbDictionary
  0
DICTIONARY
  5
1A
330
C
100
AcDbDictionary
  0
DICTIONARY
  5
17
330
C
100
AcDbDictionary
  3
STANDARD
350
18
  0
DICTIONARY
  5
19
330
C
100
AcDbDictionary
  0
ENDSEC
  0
EOF
