<?xml version="1.0" encoding="UTF-8" standalone="no"?>
<!-- Created with Inkscape (http://www.inkscape.org/) -->

<svg
   xmlns:dc="http://purl.org/dc/elements/1.1/"
   xmlns:cc="http://creativecommons.org/ns#"
   xmlns:rdf="http://www.w3.org/1999/02/22-rdf-syntax-ns#"
   xmlns:svg="http://www.w3.org/2000/svg"
   xmlns="http://www.w3.org/2000/svg"
   xmlns:sodipodi="http://sodipodi.sourceforge.net/DTD/sodipodi-0.dtd"
   xmlns:inkscape="http://www.inkscape.org/namespaces/inkscape"
   width="210mm"
   height="297mm"
   viewBox="0 0 744.09448819 1052.3622047"
   id="svg2"
   version="1.1"
   inkscape:version="0.91 r13725"
   sodipodi:docname="plate.svg">
  <defs
     id="defs4" />
  <sodipodi:namedview
     id="base"
     pagecolor="#c8c8c8"
     bordercolor="#666666"
     borderopacity="1.0"
     inkscape:pageopacity="0"
     inkscape:pageshadow="2"
     inkscape:zoom="1.4452285"
     inkscape:cx="87.115746"
     inkscape:cy="159.44883"
     inkscape:document-units="mm"
     inkscape:current-layer="g4212"
     showgrid="false"
     inkscape:window-width="1440"
     inkscape:window-height="851"
     inkscape:window-x="0"
     inkscape:window-y="1"
     inkscape:window-maximized="1" />
  <metadata
     id="metadata7">
    <rdf:RDF>
      <cc:Work
         rdf:about="">
        <dc:format>image/svg+xml</dc:format>
        <dc:type
           rdf:resource="http://purl.org/dc/dcmitype/StillImage" />
        <dc:title></dc:title>
      </cc:Work>
    </rdf:RDF>
  </metadata>
  <g
     inkscape:label="Base"
     inkscape:groupmode="layer"
     id="layer1">
    <ellipse
       style="fill:none;fill-opacity:0.50196078;stroke:none;stroke-width:0.35433072;stroke-miterlimit:4;stroke-dasharray:none"
       id="path4208"
       cx="-201.36765"
       cy="884.41302"
       rx="21.422091"
       ry="12.853253" />
    <g
       id="g4212">
      <path
         style="fill:#0000ff;fill-opacity:0.50196081;stroke:#000000;stroke-width:0.35433071;stroke-miterlimit:4;stroke-dasharray:none"
         d="M 0.17773438 733.64258 L 0.17773438 1052.1855 L 407.30273 1052.1855 L 407.30273 733.64258 L 0.17773438 733.64258 z M 53.150391 772.61719 A 6.9094486 6.9094491 0 0 1 60.058594 779.52734 A 6.9094486 6.9094491 0 0 1 53.150391 786.4375 A 6.9094486 6.9094491 0 0 1 46.240234 779.52734 A 6.9094486 6.9094491 0 0 1 53.150391 772.61719 z M 336.61328 772.61719 A 6.9094486 6.9094486 0 0 1 343.52344 779.52734 A 6.9094486 6.9094486 0 0 1 336.61328 786.4375 A 6.9094486 6.9094486 0 0 1 329.70508 779.52734 A 6.9094486 6.9094486 0 0 1 336.61328 772.61719 z M 53.150391 999.39062 A 6.9094486 6.9094486 0 0 1 60.058594 1006.2988 A 6.9094486 6.9094486 0 0 1 53.150391 1013.209 A 6.9094486 6.9094486 0 0 1 46.240234 1006.2988 A 6.9094486 6.9094486 0 0 1 53.150391 999.39062 z M 336.61328 999.39062 A 6.9094486 6.9094491 0 0 1 343.52344 1006.2988 A 6.9094486 6.9094491 0 0 1 336.61328 1013.209 A 6.9094486 6.9094491 0 0 1 329.70508 1006.2988 A 6.9094486 6.9094491 0 0 1 336.61328 999.39062 z "
         id="rect4136" />
    </g>
  </g>
</svg>
